<?xml version="1.0" encoding="UTF-8" standalone="no"?>
<!-- Created with Inkscape (http://www.inkscape.org/) -->

<svg
   xmlns:dc="http://purl.org/dc/elements/1.1/"
   xmlns:cc="http://creativecommons.org/ns#"
   xmlns:rdf="http://www.w3.org/1999/02/22-rdf-syntax-ns#"
   xmlns:svg="http://www.w3.org/2000/svg"
   xmlns="http://www.w3.org/2000/svg"
   xmlns:sodipodi="http://sodipodi.sourceforge.net/DTD/sodipodi-0.dtd"
   xmlns:inkscape="http://www.inkscape.org/namespaces/inkscape"
   width="141.19275mm"
   height="18.520823mm"
   viewBox="0 0 141.19275 18.520823"
   version="1.1"
   id="svg6079"
   inkscape:version="0.92.3 (2405546, 2018-03-11)"
   sodipodi:docname="green-governance-logo-transparent.svg"
   inkscape:export-filename="/home/eric/projects/green-governance-logo-transparent.png"
   inkscape:export-xdpi="300"
   inkscape:export-ydpi="300">
  <defs
     id="defs6073" />
  <sodipodi:namedview
     id="base"
     pagecolor="#ffffff"
     bordercolor="#666666"
     borderopacity="1.0"
     inkscape:pageopacity="0"
     inkscape:pageshadow="2"
     inkscape:zoom="0.5"
     inkscape:cx="-370.28469"
     inkscape:cy="224.61152"
     inkscape:document-units="mm"
     inkscape:current-layer="layer1"
     showgrid="false"
     inkscape:snap-object-midpoints="true"
     inkscape:window-width="2560"
     inkscape:window-height="1412"
     inkscape:window-x="0"
     inkscape:window-y="0"
     inkscape:window-maximized="1"
     inkscape:measure-start="13.1699,36.1066"
     inkscape:measure-end="0.0110485,36.1066"
     inkscape:object-nodes="false"
     inkscape:snap-center="true"
     fit-margin-top="0"
     fit-margin-left="0"
     fit-margin-right="3.5"
     fit-margin-bottom="0"
     inkscape:pagecheckerboard="true">
    <inkscape:grid
       type="xygrid"
       id="grid874"
       originx="-17.198398"
       originy="-194.46875" />
  </sodipodi:namedview>
  <metadata
     id="metadata6076">
    <rdf:RDF>
      <cc:Work
         rdf:about="">
        <dc:format>image/svg+xml</dc:format>
        <dc:type
           rdf:resource="http://purl.org/dc/dcmitype/StillImage" />
        <dc:title></dc:title>
      </cc:Work>
    </rdf:RDF>
  </metadata>
  <g
     inkscape:label="Layer 1"
     inkscape:groupmode="layer"
     id="layer1"
     transform="translate(-17.198397,-84.010426)">
    <g
       aria-label="Green Governance"
       style="font-style:normal;font-variant:normal;font-weight:900;font-stretch:normal;font-size:13.42354679px;line-height:1.25;font-family:'Fira Sans Black';-inkscape-font-specification:'Fira Sans Black, Heavy';font-variant-ligatures:normal;font-variant-caps:normal;font-variant-numeric:normal;font-feature-settings:normal;text-align:start;letter-spacing:0px;word-spacing:0px;writing-mode:lr-tb;text-anchor:start;fill:#000000;fill-opacity:1;stroke:none;stroke-width:0.08879181"
       id="text825"
       transform="matrix(1.0345666,0,0,1.0345666,-36.723271,-24.409411)">
      <path
         d="m 78.136187,108.97353 q 1.006767,0 1.839026,0.33559 0.845684,0.33559 1.476591,0.88596 l -1.342355,1.39605 q -0.496671,-0.36244 -0.899378,-0.52352 -0.402706,-0.16109 -0.912801,-0.16109 -0.979919,0 -1.503437,0.75172 -0.523519,0.7383 -0.523519,2.25516 0,1.141 0.161083,1.79875 0.161083,0.64433 0.496671,0.91281 0.349013,0.26847 0.912801,0.26847 0.496672,0 0.953072,-0.2282 v -1.70479 h -0.939648 l -0.255047,-1.86588 h 3.852558 v 4.68482 q -0.738296,0.5101 -1.691367,0.79199 -0.953072,0.28189 -1.839026,0.28189 -2.295427,0 -3.396158,-1.24839 -1.10073,-1.26181 -1.10073,-3.70489 0,-1.54371 0.604059,-2.65787 0.60406,-1.11415 1.677944,-1.69136 1.073883,-0.57722 2.429661,-0.57722 z"
         style="font-style:normal;font-variant:normal;font-weight:900;font-stretch:normal;font-size:13.42354679px;font-family:'Fira Sans Black';-inkscape-font-specification:'Fira Sans Black, Heavy';font-variant-ligatures:normal;font-variant-caps:normal;font-variant-numeric:normal;font-feature-settings:normal;text-align:start;writing-mode:lr-tb;text-anchor:start;stroke-width:0.08879181"
         id="path843"
         inkscape:connector-curvature="0" />
      <path
         d="m 86.825837,111.18842 q 0.349012,0 0.724872,0.12081 l -0.41613,2.5639 q -0.362436,-0.10739 -0.657754,-0.10739 -0.590636,0 -0.885954,0.38928 -0.281895,0.38929 -0.456401,1.16785 v 3.26192 h -2.657862 v -7.16817 h 2.322273 l 0.214777,1.34235 q 0.228201,-0.71144 0.724872,-1.141 0.496671,-0.42955 1.087307,-0.42955 z"
         style="font-style:normal;font-variant:normal;font-weight:900;font-stretch:normal;font-size:13.42354679px;font-family:'Fira Sans Black';-inkscape-font-specification:'Fira Sans Black, Heavy';font-variant-ligatures:normal;font-variant-caps:normal;font-variant-numeric:normal;font-feature-settings:normal;text-align:start;writing-mode:lr-tb;text-anchor:start;stroke-width:0.08879181"
         id="path845"
         inkscape:connector-curvature="0" />
      <path
         d="m 94.341136,114.90674 q 0,0.33559 -0.05369,0.84568 h -4.349229 q 0.107388,0.72488 0.442977,0.97992 0.349012,0.24163 0.993342,0.24163 0.375859,0 0.765142,-0.14766 0.389283,-0.16108 0.859107,-0.48325 l 1.073884,1.44974 q -1.302084,1.06046 -2.95318,1.06046 -1.906144,0 -2.886063,-1.04703 -0.979919,-1.06046 -0.979919,-2.7921 0,-1.07388 0.402707,-1.94641 0.41613,-0.88596 1.221542,-1.39605 0.805413,-0.52352 1.946415,-0.52352 1.06046,0 1.852449,0.44298 0.791989,0.44297 1.221543,1.28866 0.442977,0.84568 0.442977,2.02695 z m -2.617592,-0.75172 q -0.01342,-0.6309 -0.201353,-0.97992 -0.174506,-0.34901 -0.64433,-0.34901 -0.442977,0 -0.671178,0.30874 -0.214776,0.30874 -0.281894,1.11416 h 1.798755 z"
         style="font-style:normal;font-variant:normal;font-weight:900;font-stretch:normal;font-size:13.42354679px;font-family:'Fira Sans Black';-inkscape-font-specification:'Fira Sans Black, Heavy';font-variant-ligatures:normal;font-variant-caps:normal;font-variant-numeric:normal;font-feature-settings:normal;text-align:start;writing-mode:lr-tb;text-anchor:start;stroke-width:0.08879181"
         id="path847"
         inkscape:connector-curvature="0" />
      <path
         d="m 101.81323,114.90674 q 0,0.33559 -0.0537,0.84568 h -4.349226 q 0.107389,0.72488 0.442977,0.97992 0.349012,0.24163 0.993343,0.24163 0.375859,0 0.765142,-0.14766 0.389284,-0.16108 0.859104,-0.48325 l 1.07389,1.44974 q -1.30209,1.06046 -2.953184,1.06046 -1.906143,0 -2.886062,-1.04703 -0.979919,-1.06046 -0.979919,-2.7921 0,-1.07388 0.402706,-1.94641 0.41613,-0.88596 1.221543,-1.39605 0.805413,-0.52352 1.946414,-0.52352 1.060461,0 1.852452,0.44298 0.79199,0.44297 1.22154,1.28866 0.44298,0.84568 0.44298,2.02695 z m -2.617594,-0.75172 q -0.01342,-0.6309 -0.201353,-0.97992 -0.174506,-0.34901 -0.644331,-0.34901 -0.442977,0 -0.671177,0.30874 -0.214777,0.30874 -0.281894,1.11416 h 1.798755 z"
         style="font-style:normal;font-variant:normal;font-weight:900;font-stretch:normal;font-size:13.42354679px;font-family:'Fira Sans Black';-inkscape-font-specification:'Fira Sans Black, Heavy';font-variant-ligatures:normal;font-variant-caps:normal;font-variant-numeric:normal;font-feature-settings:normal;text-align:start;writing-mode:lr-tb;text-anchor:start;stroke-width:0.08879181"
         id="path849"
         inkscape:connector-curvature="0" />
      <path
         d="m 107.21809,111.14815 q 0.89938,0 1.40948,0.56379 0.52351,0.56379 0.52351,1.58398 v 5.28887 h -2.65786 v -4.80563 q 0,-0.4027 -0.10739,-0.55036 -0.094,-0.14766 -0.29531,-0.14766 -0.44298,0 -0.89938,0.71145 v 4.7922 h -2.65786 v -7.16817 h 2.32227 l 0.18793,0.73829 q 0.49667,-0.52351 1.00676,-0.76514 0.52352,-0.24162 1.16785,-0.24162 z"
         style="font-style:normal;font-variant:normal;font-weight:900;font-stretch:normal;font-size:13.42354679px;font-family:'Fira Sans Black';-inkscape-font-specification:'Fira Sans Black, Heavy';font-variant-ligatures:normal;font-variant-caps:normal;font-variant-numeric:normal;font-feature-settings:normal;text-align:start;writing-mode:lr-tb;text-anchor:start;stroke-width:0.08879181"
         id="path851"
         inkscape:connector-curvature="0" />
      <path
         d="m 117.59407,108.97353 q 1.00677,0 1.83903,0.33559 0.84568,0.33559 1.47659,0.88596 l -1.34236,1.39605 q -0.49667,-0.36244 -0.89937,-0.52352 -0.40271,-0.16109 -0.9128,-0.16109 -0.97992,0 -1.50344,0.75172 -0.52352,0.7383 -0.52352,2.25516 0,1.141 0.16108,1.79875 0.16109,0.64433 0.49667,0.91281 0.34902,0.26847 0.91281,0.26847 0.49667,0 0.95307,-0.2282 v -1.70479 h -0.93965 l -0.25505,-1.86588 h 3.85256 v 4.68482 q -0.7383,0.5101 -1.69137,0.79199 -0.95307,0.28189 -1.83902,0.28189 -2.29543,0 -3.39616,-1.24839 -1.10073,-1.26181 -1.10073,-3.70489 0,-1.54371 0.60406,-2.65787 0.60406,-1.11415 1.67794,-1.69136 1.07389,-0.57722 2.42966,-0.57722 z"
         style="font-style:normal;font-variant:normal;font-weight:900;font-stretch:normal;font-size:13.42354679px;font-family:'Fira Sans Black';-inkscape-font-specification:'Fira Sans Black, Heavy';font-variant-ligatures:normal;font-variant-caps:normal;font-variant-numeric:normal;font-feature-settings:normal;text-align:start;writing-mode:lr-tb;text-anchor:start;stroke-width:0.08879181"
         id="path853"
         inkscape:connector-curvature="0" />
      <path
         d="m 125.29038,111.14815 q 1.71821,0 2.69813,1.00676 0.99335,1.00677 0.99335,2.85922 0,1.15442 -0.4564,2.02696 -0.44298,0.87253 -1.27524,1.34235 -0.83226,0.46982 -1.95984,0.46982 -1.71821,0 -2.71156,-1.00676 -0.97992,-1.00677 -0.97992,-2.85922 0,-1.15442 0.44298,-2.02695 0.4564,-0.87253 1.28866,-1.34236 0.83226,-0.46982 1.95984,-0.46982 z m 0,1.90614 q -0.51009,0 -0.73829,0.4564 -0.22821,0.4564 -0.22821,1.47659 0,1.06046 0.22821,1.51686 0.2282,0.44298 0.73829,0.44298 0.5101,0 0.7383,-0.4564 0.2282,-0.4564 0.2282,-1.47659 0,-1.06046 -0.2282,-1.50344 -0.2282,-0.4564 -0.7383,-0.4564 z"
         style="font-style:normal;font-variant:normal;font-weight:900;font-stretch:normal;font-size:13.42354679px;font-family:'Fira Sans Black';-inkscape-font-specification:'Fira Sans Black, Heavy';font-variant-ligatures:normal;font-variant-caps:normal;font-variant-numeric:normal;font-feature-settings:normal;text-align:start;writing-mode:lr-tb;text-anchor:start;stroke-width:0.08879181"
         id="path855"
         inkscape:connector-curvature="0" />
      <path
         d="m 136.3409,111.41662 -2.13435,7.16817 h -3.14111 l -2.18803,-7.16817 h 2.88606 l 0.89938,5.24861 0.99334,-5.24861 z"
         style="font-style:normal;font-variant:normal;font-weight:900;font-stretch:normal;font-size:13.42354679px;font-family:'Fira Sans Black';-inkscape-font-specification:'Fira Sans Black, Heavy';font-variant-ligatures:normal;font-variant-caps:normal;font-variant-numeric:normal;font-feature-settings:normal;text-align:start;writing-mode:lr-tb;text-anchor:start;stroke-width:0.08879181"
         id="path857"
         inkscape:connector-curvature="0" />
      <path
         d="m 143.31611,114.90674 q 0,0.33559 -0.0537,0.84568 h -4.34923 q 0.10739,0.72488 0.44298,0.97992 0.34901,0.24163 0.99334,0.24163 0.37586,0 0.76515,-0.14766 0.38928,-0.16108 0.8591,-0.48325 l 1.07389,1.44974 q -1.30209,1.06046 -2.95318,1.06046 -1.90615,0 -2.88607,-1.04703 -0.97992,-1.06046 -0.97992,-2.7921 0,-1.07388 0.40271,-1.94641 0.41613,-0.88596 1.22154,-1.39605 0.80542,-0.52352 1.94642,-0.52352 1.06046,0 1.85245,0.44298 0.79199,0.44297 1.22154,1.28866 0.44298,0.84568 0.44298,2.02695 z m -2.61759,-0.75172 q -0.0134,-0.6309 -0.20136,-0.97992 -0.1745,-0.34901 -0.64433,-0.34901 -0.44297,0 -0.67117,0.30874 -0.21478,0.30874 -0.2819,1.11416 h 1.79876 z"
         style="font-style:normal;font-variant:normal;font-weight:900;font-stretch:normal;font-size:13.42354679px;font-family:'Fira Sans Black';-inkscape-font-specification:'Fira Sans Black, Heavy';font-variant-ligatures:normal;font-variant-caps:normal;font-variant-numeric:normal;font-feature-settings:normal;text-align:start;writing-mode:lr-tb;text-anchor:start;stroke-width:0.08879181"
         id="path859"
         inkscape:connector-curvature="0" />
      <path
         d="m 148.38538,111.18842 q 0.34902,0 0.72488,0.12081 l -0.41613,2.5639 q -0.36244,-0.10739 -0.65776,-0.10739 -0.59063,0 -0.88595,0.38928 -0.2819,0.38929 -0.4564,1.16785 v 3.26192 h -2.65786 v -7.16817 h 2.32227 l 0.21478,1.34235 q 0.2282,-0.71144 0.72487,-1.141 0.49667,-0.42955 1.0873,-0.42955 z"
         style="font-style:normal;font-variant:normal;font-weight:900;font-stretch:normal;font-size:13.42354679px;font-family:'Fira Sans Black';-inkscape-font-specification:'Fira Sans Black, Heavy';font-variant-ligatures:normal;font-variant-caps:normal;font-variant-numeric:normal;font-feature-settings:normal;text-align:start;writing-mode:lr-tb;text-anchor:start;stroke-width:0.08879181"
         id="path861"
         inkscape:connector-curvature="0" />
      <path
         d="m 154.22673,111.14815 q 0.89937,0 1.40947,0.56379 0.52352,0.56379 0.52352,1.58398 v 5.28887 h -2.65787 v -4.80563 q 0,-0.4027 -0.10738,-0.55036 -0.094,-0.14766 -0.29532,-0.14766 -0.44298,0 -0.89938,0.71145 v 4.7922 h -2.65786 v -7.16817 h 2.32227 l 0.18793,0.73829 q 0.49667,-0.52351 1.00677,-0.76514 0.52352,-0.24162 1.16785,-0.24162 z"
         style="font-style:normal;font-variant:normal;font-weight:900;font-stretch:normal;font-size:13.42354679px;font-family:'Fira Sans Black';-inkscape-font-specification:'Fira Sans Black, Heavy';font-variant-ligatures:normal;font-variant-caps:normal;font-variant-numeric:normal;font-feature-settings:normal;text-align:start;writing-mode:lr-tb;text-anchor:start;stroke-width:0.08879181"
         id="path863"
         inkscape:connector-curvature="0" />
      <path
         d="m 163.42542,116.26252 q 0,0.37586 0.094,0.56379 0.094,0.1745 0.33559,0.26847 l -0.53694,1.70479 q -0.72487,-0.0537 -1.18127,-0.26847 -0.4564,-0.2282 -0.75172,-0.72487 -0.69803,1.04703 -2.16119,1.04703 -1.06046,0 -1.71822,-0.6309 -0.64433,-0.64433 -0.64433,-1.6511 0,-1.19469 0.88596,-1.8256 0.88595,-0.63091 2.57732,-0.63091 h 0.51009 v -0.1745 q 0,-0.53695 -0.21477,-0.72488 -0.21478,-0.18793 -0.81884,-0.18793 -0.32216,0 -0.83226,0.10739 -0.49667,0.094 -1.02019,0.26847 l -0.57721,-1.69136 q 0.65775,-0.26847 1.42289,-0.41613 0.77857,-0.14766 1.40948,-0.14766 1.69136,0 2.45651,0.65775 0.76514,0.64433 0.76514,1.98669 z m -3.38274,0.72487 q 0.24163,0 0.44298,-0.12081 0.21478,-0.12081 0.34901,-0.30874 v -1.06046 h -0.28189 q -0.56379,0 -0.83226,0.20135 -0.26847,0.20135 -0.26847,0.61748 0,0.30875 0.16108,0.49667 0.16108,0.17451 0.42955,0.17451 z"
         style="font-style:normal;font-variant:normal;font-weight:900;font-stretch:normal;font-size:13.42354679px;font-family:'Fira Sans Black';-inkscape-font-specification:'Fira Sans Black, Heavy';font-variant-ligatures:normal;font-variant-caps:normal;font-variant-numeric:normal;font-feature-settings:normal;text-align:start;writing-mode:lr-tb;text-anchor:start;stroke-width:0.08879181"
         id="path865"
         inkscape:connector-curvature="0" />
      <path
         d="m 169.302,111.14815 q 0.89937,0 1.40947,0.56379 0.52352,0.56379 0.52352,1.58398 v 5.28887 h -2.65786 v -4.80563 q 0,-0.4027 -0.10739,-0.55036 -0.094,-0.14766 -0.29532,-0.14766 -0.44298,0 -0.89938,0.71145 v 4.7922 h -2.65786 v -7.16817 h 2.32227 l 0.18793,0.73829 q 0.49667,-0.52351 1.00677,-0.76514 0.52352,-0.24162 1.16785,-0.24162 z"
         style="font-style:normal;font-variant:normal;font-weight:900;font-stretch:normal;font-size:13.42354679px;font-family:'Fira Sans Black';-inkscape-font-specification:'Fira Sans Black, Heavy';font-variant-ligatures:normal;font-variant-caps:normal;font-variant-numeric:normal;font-feature-settings:normal;text-align:start;writing-mode:lr-tb;text-anchor:start;stroke-width:0.08879181"
         id="path867"
         inkscape:connector-curvature="0" />
      <path
         d="m 175.69517,111.14815 q 1.53028,0 2.60417,0.95307 l -1.10073,1.54371 q -0.61749,-0.49667 -1.26182,-0.49667 -0.61748,0 -0.9128,0.42955 -0.29532,0.42955 -0.29532,1.47659 0,1.00677 0.29532,1.38263 0.30874,0.36243 0.88595,0.36243 0.30875,0 0.57722,-0.094 0.26847,-0.10739 0.67117,-0.36244 l 1.14101,1.62425 q -1.08731,0.88595 -2.53705,0.88595 -1.16785,0 -2.02696,-0.46982 -0.85911,-0.48325 -1.31551,-1.34235 -0.4564,-0.87254 -0.4564,-1.98669 0,-1.12758 0.4564,-2.01353 0.46983,-0.88596 1.31551,-1.38263 0.84568,-0.51009 1.95984,-0.51009 z"
         style="font-style:normal;font-variant:normal;font-weight:900;font-stretch:normal;font-size:13.42354679px;font-family:'Fira Sans Black';-inkscape-font-specification:'Fira Sans Black, Heavy';font-variant-ligatures:normal;font-variant-caps:normal;font-variant-numeric:normal;font-feature-settings:normal;text-align:start;writing-mode:lr-tb;text-anchor:start;stroke-width:0.08879181"
         id="path869"
         inkscape:connector-curvature="0" />
      <path
         d="m 185.21226,114.90674 q 0,0.33559 -0.0537,0.84568 h -4.34923 q 0.10739,0.72488 0.44298,0.97992 0.34901,0.24163 0.99334,0.24163 0.37586,0 0.76514,-0.14766 0.38929,-0.16108 0.85911,-0.48325 l 1.07389,1.44974 q -1.30209,1.06046 -2.95318,1.06046 -1.90615,0 -2.88607,-1.04703 -0.97992,-1.06046 -0.97992,-2.7921 0,-1.07388 0.40271,-1.94641 0.41613,-0.88596 1.22154,-1.39605 0.80542,-0.52352 1.94642,-0.52352 1.06046,0 1.85245,0.44298 0.79199,0.44297 1.22154,1.28866 0.44298,0.84568 0.44298,2.02695 z m -2.6176,-0.75172 q -0.0134,-0.6309 -0.20135,-0.97992 -0.1745,-0.34901 -0.64433,-0.34901 -0.44298,0 -0.67118,0.30874 -0.21477,0.30874 -0.28189,1.11416 h 1.79875 z"
         style="font-style:normal;font-variant:normal;font-weight:900;font-stretch:normal;font-size:13.42354679px;font-family:'Fira Sans Black';-inkscape-font-specification:'Fira Sans Black, Heavy';font-variant-ligatures:normal;font-variant-caps:normal;font-variant-numeric:normal;font-feature-settings:normal;text-align:start;writing-mode:lr-tb;text-anchor:start;stroke-width:0.08879181"
         id="path871"
         inkscape:connector-curvature="0" />
    </g>
    <g
       id="g841"
       transform="matrix(1.1068748,0,0,1.1068748,-36.477409,-30.064358)">
      <rect
         y="103.06024"
         x="48.493114"
         height="16.732536"
         width="16.731672"
         id="rect6628"
         style="fill:#05b76a;fill-opacity:1;stroke:none;stroke-width:0.83660513;stroke-miterlimit:4;stroke-dasharray:none;stroke-opacity:1" />
      <g
         aria-label="G"
         style="font-style:normal;font-weight:normal;font-size:21.88153458px;line-height:1.25;font-family:sans-serif;letter-spacing:0px;word-spacing:0px;fill:#ffffff;fill-opacity:1;stroke:none;stroke-width:0.14473723"
         id="text829"
         transform="matrix(0.7979695,0,0,0.7979695,9.8466127,20.634889)">
        <path
           d="m 60.052799,105.7259 q 1.641115,0 2.99777,0.54704 1.378537,0.54704 2.406969,1.44418 l -2.188153,2.27568 q -0.809617,-0.5908 -1.466063,-0.85338 -0.656446,-0.26258 -1.487945,-0.26258 -1.597352,0 -2.450732,1.22537 -0.853379,1.20348 -0.853379,3.6761 0,1.85993 0.262578,2.93212 0.262578,1.05032 0.809617,1.48795 0.56892,0.43763 1.487944,0.43763 0.809617,0 1.553589,-0.37199 v -2.77895 h -1.531707 l -0.415749,-3.04154 h 6.28 v 7.63666 q -1.203484,0.8315 -2.757073,1.29101 -1.553589,0.45951 -2.997771,0.45951 -3.741742,0 -5.536028,-2.03498 -1.794286,-2.05686 -1.794286,-6.0393 0,-2.51638 0.984669,-4.33255 0.984669,-1.81617 2.735192,-2.75707 1.750523,-0.94091 3.960558,-0.94091 z"
           style="font-style:normal;font-variant:normal;font-weight:900;font-stretch:normal;font-size:21.88153458px;font-family:'Fira Sans Black';-inkscape-font-specification:'Fira Sans Black, Heavy';font-variant-ligatures:normal;font-variant-caps:normal;font-variant-numeric:normal;font-feature-settings:normal;text-align:start;writing-mode:lr-tb;text-anchor:start;fill:#ffffff;fill-opacity:1;stroke-width:0.14473723"
           id="path831"
           inkscape:connector-curvature="0" />
      </g>
    </g>
  </g>
</svg>
